<?xml version="1.0" encoding="UTF-8"?>
<!-- Generator: https://ezgif.com/png-to-svg -->
<svg version="1.1" xmlns="http://www.w3.org/2000/svg" width="512" height="512">
<path d="M0 0 C17.78 -0.07 35.55 -0.12 53.33 -0.16 C61.58 -0.17 69.84 -0.19 78.09 -0.23 C85.28 -0.26 92.48 -0.28 99.67 -0.28 C103.48 -0.29 107.29 -0.3 111.1 -0.32 C114.69 -0.34 118.27 -0.34 121.86 -0.34 C123.8 -0.34 125.74 -0.36 127.68 -0.37 C129.42 -0.37 129.42 -0.37 131.2 -0.36 C132.2 -0.36 133.21 -0.37 134.25 -0.37 C137.51 0.07 139.37 1.05 142 3 C143.48 5.82 143.48 5.82 144.62 9.12 C145.04 10.3 145.45 11.47 145.88 12.68 C146.43 14.32 146.43 14.32 147 16 C147.28 16.75 147.55 17.49 147.84 18.26 C151.17 27.44 153.09 37.25 154.95 46.83 C156.04 52.36 157.41 57.8 158.81 63.25 C160.83 71.19 162.73 79.13 164.5 87.12 C166.76 97.26 169.44 107.24 172.23 117.24 C173.01 120.02 173.76 122.81 174.5 125.61 C181.07 151.89 181.07 151.89 191 177 C194.9 170.75 198.39 164.39 201.61 157.76 C202.96 155.09 204.43 152.55 206 150 C210 143.47 213.75 136.84 217.36 130.08 C220.19 124.77 223.14 119.52 226.1 114.28 C226.88 112.89 227.66 111.51 228.44 110.12 C229.03 109.08 229.03 109.08 229.63 108.02 C231.85 104.07 234.04 100.11 236.19 96.12 C238.05 92.7 239.98 89.33 242 86 C245.8 79.73 249.27 73.31 252.66 66.81 C259.05 54.65 266 42.82 273 31 C273.78 29.6 273.78 29.6 274.57 28.17 C275.04 27.46 275.51 26.74 276 26 C276.66 26 277.32 26 278 26 C278.13 25.13 278.13 25.13 278.27 24.25 C280.49 17.42 289.43 11.27 295.56 8 C315.07 -1.19 336.1 -0.37 357.22 -0.32 C359.27 -0.31 361.32 -0.31 363.38 -0.31 C383.47 -0.29 403.5 0.25 423.56 1.38 C424.72 1.44 425.87 1.5 427.07 1.57 C430.32 1.75 433.57 1.94 436.82 2.15 C437.77 2.2 438.72 2.26 439.7 2.32 C444.44 2.64 448.53 3.21 453 5 C449.39 8.26 445.83 10.09 441.38 11.88 C435.91 14.46 431.24 18.25 426.62 22.12 C426.06 22.6 425.5 23.07 424.91 23.56 C420.51 27.35 416.91 31.49 413.49 36.2 C413 36.79 412.51 37.39 412 38 C411.34 38 410.68 38 410 38 C409.66 38.77 409.66 38.77 409.31 39.56 C407.83 42.32 406.06 44.75 404.22 47.28 C403.25 48.64 402.36 50.06 401.5 51.5 C400 54 400 54 397.69 57.12 C394.9 60.96 392.76 65.07 390.54 69.25 C389.14 71.75 387.64 74.08 386 76.44 C383 80.81 380.69 85.43 378.39 90.2 C377.05 92.89 375.57 95.44 374 98 C373.32 99.33 372.65 100.66 372 102 C371.34 102 370.68 102 370 102 C369.89 102.73 369.78 103.46 369.67 104.21 C368.96 107.17 367.94 109.07 366.31 111.62 C364.09 115.2 361.99 118.79 360 122.5 C358.09 126.04 356.11 129.51 354 132.94 C351.22 137.51 348.86 142.23 346.51 147.04 C344.65 150.69 342.56 154.17 340.39 157.65 C338.78 160.37 337.41 163.17 336 166 C334.76 168.24 333.51 170.47 332.25 172.69 C328.02 180.16 323.85 187.67 319.69 195.19 C314.5 204.54 309.25 213.85 303.93 223.12 C301.08 228.1 298.28 233.09 295.55 238.14 C292.97 242.9 290.32 247.64 287.68 252.37 C285.37 256.53 283.07 260.69 280.81 264.88 C278.22 269.65 275.48 274.33 272.73 279.02 C270.55 282.78 268.47 286.59 266.4 290.42 C265.11 292.79 263.81 295.15 262.5 297.5 C260.73 300.68 258.98 303.86 257.25 307.06 C254.05 312.92 250.79 318.75 247.5 324.56 C246.96 325.53 246.41 326.49 245.86 327.48 C242.75 332.98 239.56 338.42 236.3 343.83 C234.78 346.37 233.34 348.95 231.94 351.56 C231.44 352.49 230.94 353.41 230.43 354.36 C229.96 355.23 229.48 356.1 229 357 C220.51 372.49 211.67 387.71 201.76 402.34 C199.96 404.99 199.96 404.99 198.39 407.84 C197.93 408.56 197.47 409.27 197 410 C196.34 410 195.68 410 195 410 C194.79 410.67 194.58 411.34 194.36 412.03 C192.54 416.01 190 419.12 187.25 422.5 C186.74 423.15 186.22 423.8 185.7 424.47 C182.43 428.53 179.05 431.74 175 435 C173.49 436.68 173.49 436.68 172.38 438.25 C169.91 441.1 169.42 441.29 166 442 C165.73 442.6 165.45 443.2 165.17 443.81 C163.69 446.58 162.04 447.64 159.44 449.38 C158.54 449.98 157.64 450.59 156.71 451.21 C155.81 451.8 154.92 452.39 154 453 C153.26 453.51 152.52 454.02 151.76 454.54 C135.54 465.63 117.28 474.79 98.12 479.47 C96.07 479.98 94.04 480.54 92.01 481.11 C71.51 486.86 50.77 490.13 29.62 492.31 C28.79 492.4 27.96 492.49 27.11 492.58 C17.37 493.59 7.8 494.27 -2 494 C-1.4 490.8 -1.09 490.08 1.44 487.75 C4 486 4 486 6 486 C6.33 485.01 6.66 484.02 7 483 C8.67 481.39 8.67 481.39 10.75 479.69 C13.4 477.46 15.73 475.28 17.88 472.56 C18.58 471.72 19.28 470.87 20 470 C20.66 470 21.32 470 22 470 C22.34 469.21 22.34 469.21 22.69 468.41 C24.46 465.16 26.72 462.34 29 459.44 C31.42 456.34 33.82 453.27 36 450 C36.66 450 37.32 450 38 450 C38.11 449.43 38.23 448.86 38.35 448.27 C39.06 445.79 40.07 443.94 41.44 441.75 C42.09 440.69 42.09 440.69 42.75 439.61 C43.16 439.08 43.57 438.55 44 438 C44.66 438 45.32 438 46 438 C46.11 437.43 46.21 436.86 46.32 436.27 C47.11 433.64 48.29 431.87 49.88 429.62 C52.28 426.21 54.15 422.75 56 419 C57.41 416.42 58.86 413.87 60.31 411.31 C63.43 405.81 66.51 400.29 69.52 394.72 C70.78 392.4 72.07 390.09 73.36 387.78 C75.98 383.06 78.5 378.29 81 373.5 C85.17 365.51 89.37 357.54 94.12 349.88 C96.47 346.01 98.35 342.2 100 338 C100.66 338 101.32 338 102 338 C102.07 337.35 102.14 336.71 102.21 336.04 C103.33 331.74 105.48 328.21 107.69 324.38 C108.6 322.76 109.52 321.14 110.43 319.52 C111.1 318.36 111.1 318.36 111.78 317.16 C113.3 314.46 114.78 311.73 116.25 309 C118.08 305.63 119.99 302.33 122 299.06 C124.12 295.57 126.02 292.04 127.81 288.38 C131.91 280.02 136.58 272 141.19 263.92 C146.04 255.39 150.73 246.84 155 238 C154.37 237.91 153.73 237.82 153.08 237.73 C148.76 236.7 144.82 234.98 140.75 233.25 C139.94 232.91 139.13 232.58 138.3 232.23 C115.59 222.64 91.63 205.94 78 185 C78 184.01 78 183.02 78 182 C77.34 182 76.68 182 76 182 C74.92 180.57 74.92 180.57 73.76 178.56 C73.12 177.47 73.12 177.47 72.46 176.35 C72.02 175.57 71.58 174.8 71.12 174 C70.69 173.26 70.26 172.51 69.81 171.75 C65.96 165.1 62.44 158.45 59.83 151.21 C58.89 148.71 57.86 146.27 56.81 143.81 C49.45 126.28 42.76 108.35 37.21 90.16 C34.92 82.69 32.53 75.25 30.12 67.81 C29.91 67.14 29.69 66.46 29.46 65.76 C20.43 29.9 20.43 29.9 -1 2 C-0.67 1.34 -0.34 0.68 0 0 Z " fill="#CB3031" transform="translate(44,14)"/>
<path d="M0 0 C17.78 -0.07 35.55 -0.12 53.33 -0.16 C61.58 -0.17 69.84 -0.19 78.09 -0.23 C85.28 -0.26 92.48 -0.28 99.67 -0.28 C103.48 -0.29 107.29 -0.3 111.1 -0.32 C114.69 -0.34 118.27 -0.34 121.86 -0.34 C123.8 -0.34 125.74 -0.36 127.68 -0.37 C129.42 -0.37 129.42 -0.37 131.2 -0.36 C132.2 -0.36 133.21 -0.37 134.25 -0.37 C137.51 0.07 139.37 1.05 142 3 C143.48 5.82 143.48 5.82 144.62 9.12 C145.04 10.3 145.45 11.47 145.88 12.68 C146.43 14.32 146.43 14.32 147 16 C147.28 16.75 147.55 17.49 147.84 18.26 C151.17 27.44 153.09 37.25 154.95 46.83 C156.04 52.36 157.41 57.8 158.81 63.25 C161.11 72.31 163.26 81.39 165.3 90.5 C166.77 97.03 168.32 103.53 170 110 C169.67 110 169.34 110 169 110 C169.7 120.03 169.7 120.03 171 130 C170.01 130.33 169.02 130.66 168 131 C168 131.99 168 132.98 168 134 C168.99 134.33 169.98 134.66 171 135 C171 135.99 171 136.98 171 138 C169.68 138 168.36 138 167 138 C166.67 138.66 166.34 139.32 166 140 C165.34 140 164.68 140 164 140 C164 140.66 164 141.32 164 142 C159.67 145.56 155.81 145.34 150.5 145.12 C143.7 144.91 143.7 144.91 137 146 C136.67 147.65 136.34 149.3 136 151 C133.39 151.93 132.36 152.15 129.75 151.06 C129.17 150.71 128.59 150.36 128 150 C128 150.66 128 151.32 128 152 C127.47 151.84 126.94 151.67 126.39 151.5 C123.46 150.89 120.74 150.9 117.75 150.94 C116.67 150.95 115.59 150.96 114.48 150.96 C113.25 150.98 113.25 150.98 112 151 C112 151.66 112 152.32 112 153 C110.42 153.34 108.83 153.67 107.25 154 C106.37 154.19 105.49 154.37 104.58 154.56 C101.44 155.1 98.92 155.46 96 154 C96 155.32 96 156.64 96 158 C93.95 158.23 91.9 158.46 89.85 158.68 C87.99 158.82 87.99 158.82 87 160 C84.86 160.1 82.71 160.13 80.56 160.12 C79.39 160.13 78.21 160.13 77 160.13 C74 160 74 160 72 159 C72.5 156.03 72.5 156.03 73 153 C72.44 153.25 71.89 153.5 71.31 153.75 C69 154 69 154 66.25 152.06 C65.51 151.38 64.77 150.7 64 150 C64.33 149.34 64.66 148.68 65 148 C63.68 148 62.36 148 61 148 C60.67 147.34 60.34 146.68 60 146 C59.34 146.66 58.68 147.32 58 148 C57.64 146.95 57.27 145.89 56.9 144.81 C54.36 137.52 51.78 130.28 48.88 123.12 C44.48 112.3 40.62 101.34 37.21 90.16 C34.92 82.69 32.53 75.25 30.12 67.81 C29.91 67.14 29.69 66.46 29.46 65.76 C20.43 29.9 20.43 29.9 -1 2 C-0.67 1.34 -0.34 0.68 0 0 Z " fill="#DE3635" transform="translate(44,14)"/>
<path d="M0 0 C2 1 2 1 2.91 3.42 C3.22 4.47 3.52 5.53 3.84 6.62 C4.35 8.37 4.35 8.37 4.87 10.15 C5.4 11.99 5.4 11.99 5.94 13.88 C6.28 15.07 6.63 16.26 6.99 17.48 C8.82 23.78 10.58 30.09 12.29 36.41 C13.46 40.67 14.69 44.9 15.94 49.12 C16.3 50.37 16.3 50.37 16.66 51.64 C18.35 57.32 20.47 62.65 23 68 C23.99 67.67 24.98 67.34 26 67 C25.61 68.13 25.21 69.25 24.81 70.41 C23.49 75.72 25.03 79.46 27.06 84.38 C27.56 85.64 27.56 85.64 28.06 86.93 C30.03 91.86 32.13 96.68 34.63 101.36 C35.76 103.54 36.8 105.72 37.8 107.95 C45.57 125.13 56.82 146.05 74.62 154.5 C82.76 157.33 92.39 157.66 100.31 154.06 C112.82 146.66 120.64 135.19 128 123 C129 126 129 126 128.06 128.37 C127.57 129.29 127.08 130.2 126.58 131.15 C126.05 132.15 125.52 133.16 124.97 134.2 C124.4 135.24 123.83 136.29 123.25 137.38 C122.7 138.42 122.15 139.46 121.58 140.53 C119.15 145.09 116.67 149.58 114 154 C113.07 155.62 112.15 157.24 111.23 158.86 C109.71 161.5 108.17 164.13 106.62 166.75 C103.79 171.59 101.07 176.48 98.4 181.42 C96.71 184.53 94.99 187.62 93.27 190.7 C92.38 192.31 91.5 193.93 90.64 195.55 C87.8 200.84 84.85 206.05 81.75 211.19 C81.08 212.29 80.42 213.4 79.73 214.54 C79.16 215.35 78.59 216.16 78 217 C77.34 217 76.68 217 76 217 C75.67 214.36 75.34 211.72 75 209 C71.43 207.81 69.69 208.37 66 209 C63.3 209.09 60.63 209.14 57.94 209.12 C57.24 209.13 56.55 209.13 55.83 209.14 C52.08 209.13 48.67 208.74 45 208 C44.34 208.33 43.68 208.66 43 209 C41.32 208.01 39.66 207.01 38 206 C33.16 203.81 33.16 203.81 28 203 C28 202.34 28 201.68 28 201 C26.35 200.67 24.7 200.34 23 200 C23 199.34 23 198.68 23 198 C22.01 197.67 21.02 197.34 20 197 C20 196.01 20 195.02 20 194 C19.34 194 18.68 194 18 194 C17.67 193.34 17.34 192.68 17 192 C16.01 191.67 15.02 191.34 14 191 C13.67 190.34 13.34 189.68 13 189 C12.01 188.67 11.02 188.34 10 188 C8.97 186.35 7.97 184.68 7 183 C6.34 182.67 5.68 182.34 5 182 C3.65 179.07 2.7 176.15 2 173 C1.34 173.33 0.68 173.66 0 174 C-3.15 168.52 -4.49 164.32 -4.82 158 C-4.78 156 -4.78 156 -6 155 C-6.07 153.48 -6.08 151.96 -6.06 150.44 C-6.05 149.61 -6.04 148.78 -6.04 147.93 C-6.02 147.3 -6.01 146.66 -6 146 C-6.99 146 -7.98 146 -9 146 C-9 144.02 -9 142.04 -9 140 C-9.99 140 -10.98 140 -12 140 C-12.33 139.34 -12.66 138.68 -13 138 C-13.99 138.33 -14.98 138.66 -16 139 C-15.39 135.44 -14.42 132.32 -13 129 C-13.63 128.91 -14.27 128.82 -14.92 128.73 C-19.24 127.7 -23.18 125.98 -27.25 124.25 C-28.06 123.91 -28.87 123.58 -29.7 123.23 C-52.41 113.64 -76.37 96.94 -90 76 C-90 75.01 -90 74.02 -90 73 C-90.66 73 -91.32 73 -92 73 C-93.08 71.57 -93.08 71.57 -94.24 69.56 C-94.88 68.47 -94.88 68.47 -95.54 67.35 C-95.98 66.57 -96.42 65.8 -96.88 65 C-97.31 64.26 -97.74 63.51 -98.19 62.75 C-109.59 43.07 -109.59 43.07 -108.57 37.77 C-108.29 36.89 -108.29 36.89 -108 36 C-107.67 36.99 -107.34 37.98 -107 39 C-105.68 39 -104.36 39 -103 39 C-102.67 39.99 -102.34 40.98 -102 42 C-99.57 43.19 -97.72 44 -95 44 C-95.02 44.78 -95.04 45.57 -95.06 46.38 C-95.19 48.98 -95.19 48.98 -94 51 C-91.9 50.86 -89.79 50.71 -87.69 50.56 C-86.52 50.48 -85.34 50.4 -84.14 50.32 C-80.97 50.11 -80.97 50.11 -78 49 C-76 48.96 -74 48.96 -72 49 C-72 47.68 -72 46.36 -72 45 C-71.32 45.21 -70.64 45.41 -69.94 45.62 C-66.2 46.1 -63.57 45.1 -60 44 C-58.68 44 -57.36 44 -56 44 C-56 43.34 -56 42.68 -56 42 C-51.35 40.45 -46.06 40.18 -41.5 42 C-41 42.33 -40.51 42.66 -40 43 C-40 42.34 -40 41.68 -40 41 C-37.69 41.33 -35.38 41.66 -33 42 C-32.77 41.22 -32.55 40.43 -32.31 39.62 C-31 37 -31 37 -28.96 35.84 C-25.01 34.72 -21.39 34.86 -17.31 35 C-14.52 35.09 -11.8 35.09 -9 35 C-8.01 34.01 -8.01 34.01 -7 33 C-6.01 33 -5.02 33 -4 33 C-4 32.34 -4 31.68 -4 31 C-3.34 31 -2.68 31 -2 31 C-1.5 29.51 -1.5 29.51 -1 28 C0.98 28.5 0.98 28.5 3 29 C2.5 27.51 2.5 27.51 2 26 C1.34 25.67 0.68 25.34 0 25 C0 24.01 0 23.02 0 22 C0.99 21.5 0.99 21.5 2 21 C1.78 19.73 1.78 19.73 1.56 18.44 C0.54 12.21 -0.25 6.31 0 0 Z " fill="#8F1B24" transform="translate(212,123)"/>
<path d="M0 0 C-0.33 1.98 -0.66 3.96 -1 6 C0.32 6.33 1.64 6.66 3 7 C3 7.66 3 8.32 3 9 C5.64 9 8.28 9 11 9 C11 9.66 11 10.32 11 11 C10.1 11.09 10.1 11.09 9.17 11.18 C8.37 11.27 7.57 11.35 6.75 11.44 C5.96 11.52 5.17 11.6 4.36 11.68 C2.18 11.98 0.12 12.42 -2 13 C-2 13.66 -2 14.32 -2 15 C-1.01 15 -0.02 15 1 15 C1 15.66 1 16.32 1 17 C3.31 17 5.62 17 8 17 C7.62 18.94 7.62 18.94 7 21 C4.51 22.25 3.59 21.78 1 21 C1 21.66 1 22.32 1 23 C0.01 23.33 -0.98 23.66 -2 24 C-2.5 25.48 -2.5 25.48 -3 27 C-2.07 27.22 -2.07 27.22 -1.12 27.44 C1 28 1 28 3 29 C3 29.66 3 30.32 3 31 C4.32 31 5.64 31 7 31 C7.5 32.49 7.5 32.49 8 34 C8.99 34.33 9.98 34.66 11 35 C11 34.34 11 33.68 11 33 C12.32 33 13.64 33 15 33 C15 36.3 15 39.6 15 43 C16.32 43 17.64 43 19 43 C19 43.66 19 44.32 19 45 C19.66 45 20.32 45 21 45 C21 45.66 21 46.32 21 47 C21.66 47 22.32 47 23 47 C23 47.66 23 48.32 23 49 C24.98 49 26.96 49 29 49 C29 48.34 29 47.68 29 47 C32.23 44.85 33.28 44.8 37 45 C37 45.66 37 46.32 37 47 C37.66 47 38.32 47 39 47 C39 47.66 39 48.32 39 49 C39.66 49 40.32 49 41 49 C41 49.66 41 50.32 41 51 C41.66 51 42.32 51 43 51 C43 50.34 43 49.68 43 49 C46.64 46.57 48.71 46.84 53 47 C53 47.66 53 48.32 53 49 C53.7 49.05 54.4 49.1 55.12 49.15 C56.03 49.22 56.94 49.3 57.88 49.38 C58.78 49.44 59.68 49.51 60.62 49.59 C63 50 63 50 65 52 C64.62 54 64.62 54 64 56 C64 56.66 64 57.32 64 58 C65.49 58.5 65.49 58.5 67 59 C67 60.32 67 61.64 67 63 C67.66 63 68.32 63 69 63 C69 63.66 69 64.32 69 65 C70.32 65 71.64 65 73 65 C73 65.66 73 66.32 73 67 C76.47 66.5 76.47 66.5 80 66 C80.33 66.99 80.66 67.98 81 69 C81.66 69 82.32 69 83 69 C83 70.65 83 72.3 83 74 C82.34 73.67 81.68 73.34 81 73 C81 72.34 81 71.68 81 71 C80.34 71 79.68 71 79 71 C79.17 71.52 79.33 72.03 79.5 72.56 C80.15 75.73 80.06 78.77 80 82 C79.34 82 78.68 82 78 82 C77.81 83.14 77.81 83.14 77.62 84.31 C77 87 77 87 75 90 C74.34 90 73.68 90 73 90 C71.17 94.47 69.58 99.01 68 103.57 C66.99 106.01 65.83 107.17 64 109 C63.27 110.69 62.54 112.38 61.83 114.08 C60.66 116.77 59.34 119.39 58 122 C57.34 122 56.68 122 56 122 C56 123.32 56 124.64 56 126 C55.01 126 54.02 126 53 126 C53 127.65 53 129.3 53 131 C51.35 131.33 49.7 131.66 48 132 C46.58 135.82 45.76 138.91 46 143 C45.34 143 44.68 143 44 143 C43.34 145.31 42.68 147.62 42 150 C41.34 150 40.68 150 40 150 C39.92 150.74 39.83 151.49 39.75 152.25 C38.85 155.54 37.62 156.86 35 159 C34.34 159 33.68 159 33 159 C33 159.66 33 160.32 33 161 C32.34 161 31.68 161 31 161 C31 161.99 31 162.98 31 164 C30.01 164.33 29.02 164.66 28 165 C27.67 165.66 27.34 166.32 27 167 C25.68 167 24.36 167 23 167 C23 166.34 23 165.68 23 165 C22.09 165.52 21.19 166.03 20.25 166.56 C17 168 17 168 14.62 167.69 C13.82 167.35 13.82 167.35 13 167 C12.8 163.28 12.85 162.23 15 159 C16.32 159 17.64 159 19 159 C19 158.34 19 157.68 19 157 C19.66 157 20.32 157 21 157 C21 156.34 21 155.68 21 155 C20.34 155 19.68 155 19 155 C19 153.02 19 151.04 19 149 C20.98 149 22.96 149 25 149 C25 149.66 25 150.32 25 151 C25.66 151 26.32 151 27 151 C27 151.66 27 152.32 27 153 C28.65 153.33 30.3 153.66 32 154 C31.34 151.36 30.68 148.72 30 146 C29.01 146.33 28.02 146.66 27 147 C26.5 142.55 26.5 142.55 26 138 C25.01 138.33 24.02 138.66 23 139 C23 138.34 23 137.68 23 137 C23.66 137 24.32 137 25 137 C25 136.34 25 135.68 25 135 C24.34 135 23.68 135 23 135 C23 134.34 23 133.68 23 133 C23.66 133 24.32 133 25 133 C25 132.34 25 131.68 25 131 C23.75 131.08 22.49 131.17 21.2 131.25 C19.55 131.36 17.9 131.46 16.25 131.56 C15.43 131.62 14.6 131.67 13.75 131.73 C12.55 131.8 12.55 131.8 11.33 131.88 C10.59 131.93 9.86 131.97 9.11 132.02 C6.92 132 5.1 131.61 3 131 C3 128.36 3 125.72 3 123 C2.34 123 1.68 123 1 123 C1 121.68 1 120.36 1 119 C1.66 119 2.32 119 3 119 C3 118.34 3 117.68 3 117 C4.98 117 6.96 117 9 117 C9 115.02 9 113.04 9 111 C8.34 111 7.68 111 7 111 C7 109.68 7 108.36 7 107 C2.66 107.18 2.66 107.18 -1 109 C-3 109.04 -5 109.04 -7 109 C-7 108.34 -7 107.68 -7 107 C-7.99 106.5 -7.99 106.5 -9 106 C-8.34 104.35 -7.68 102.7 -7 101 C-6.34 101 -5.68 101 -5 101 C-5 100.34 -5 99.68 -5 99 C-4.34 99 -3.68 99 -3 99 C-3 98.34 -3 97.68 -3 97 C-3.66 97 -4.32 97 -5 97 C-5.33 96.01 -5.66 95.02 -6 94 C-6.99 94.33 -7.98 94.66 -9 95 C-9 91.7 -9 88.4 -9 85 C-9.66 85 -10.32 85 -11 85 C-11 83.68 -11 82.36 -11 81 C-13.97 81.99 -13.97 81.99 -17 83 C-17 83.66 -17 84.32 -17 85 C-16.34 85 -15.68 85 -15 85 C-15 87.64 -15 90.28 -15 93 C-16.32 93 -17.64 93 -19 93 C-19 92.34 -19 91.68 -19 91 C-19.66 91 -20.32 91 -21 91 C-21.22 87.14 -20.6 84.51 -19 81 C-19.66 81 -20.32 81 -21 81 C-21 80.34 -21 79.68 -21 79 C-22.32 79 -23.64 79 -25 79 C-25 78.34 -25 77.68 -25 77 C-29.03 77.55 -33.02 78.16 -37 79 C-38 77 -38 77 -37.44 73.56 C-36.59 69.9 -36.59 69.9 -39 67 C-39.66 67 -40.32 67 -41 67 C-40.6 63.6 -40.16 61.27 -38.38 58.31 C-37.92 57.55 -37.47 56.79 -37 56 C-37.5 54.51 -37.5 54.51 -38 53 C-36 50 -36 50 -33.5 49.12 C-30.76 48.21 -30.76 48.21 -29.69 45.38 C-29.46 44.59 -29.23 43.81 -29 43 C-28.34 43 -27.68 43 -27 43 C-26.9 42.28 -26.79 41.56 -26.69 40.81 C-25.93 37.72 -24.71 35.66 -23 33 C-22.65 32.28 -22.3 31.56 -21.94 30.81 C-21 29 -21 29 -19 27 C-19.33 26.34 -19.66 25.68 -20 25 C-18.68 24.67 -17.36 24.34 -16 24 C-16 23.01 -16 22.02 -16 21 C-15.34 21 -14.68 21 -14 21 C-13.86 20.28 -13.71 19.56 -13.56 18.81 C-13.38 17.88 -13.19 16.96 -13 16 C-12.88 15.13 -12.75 14.27 -12.62 13.38 C-11.89 10.6 -11.04 9.96 -9 8 C-8.31 6.8 -7.65 5.59 -7 4.38 C-4.87 0.79 -4.13 0 0 0 Z " fill="#E43937" transform="translate(295,99)"/>
<path d="M0 0 C2.05 0.01 4.11 0.01 6.16 0.01 C26.25 0.03 46.28 0.57 66.35 1.69 C67.5 1.76 68.66 1.82 69.85 1.88 C73.1 2.07 76.35 2.26 79.6 2.47 C80.55 2.52 81.5 2.58 82.48 2.63 C87.22 2.96 91.32 3.53 95.78 5.32 C92.18 8.57 88.61 10.41 84.16 12.19 C78.69 14.78 74.02 18.57 69.41 22.44 C68.56 23.15 68.56 23.15 67.7 23.88 C63.29 27.67 59.69 31.8 56.27 36.52 C55.78 37.11 55.29 37.71 54.78 38.32 C54.12 38.32 53.46 38.32 52.78 38.32 C52.44 39.09 52.44 39.09 52.1 39.88 C50.61 42.64 48.85 45.07 47.01 47.59 C46.04 48.96 45.14 50.38 44.28 51.82 C42.78 54.32 42.78 54.32 40.47 57.44 C37.69 61.28 35.54 65.39 33.32 69.56 C31.92 72.07 30.42 74.4 28.78 76.75 C25.78 81.13 23.47 85.74 21.18 90.52 C19.84 93.21 18.35 95.75 16.78 98.32 C16.1 99.64 15.43 100.97 14.78 102.32 C14.12 102.32 13.46 102.32 12.78 102.32 C12.62 103.41 12.62 103.41 12.45 104.53 C11.74 107.49 10.72 109.39 9.1 111.94 C5.77 117.29 2.76 122.77 -0.22 128.32 C-0.88 128.32 -1.54 128.32 -2.22 128.32 C-2.22 126.67 -2.22 125.02 -2.22 123.32 C-1.56 123.32 -0.9 123.32 -0.22 123.32 C-0.2 122.62 -0.19 121.91 -0.17 121.19 C0.16 114.56 1.15 109.32 5.78 104.32 C6.77 103.99 7.76 103.66 8.78 103.32 C10.91 100.13 11.29 98.05 11.78 94.32 C12.44 94.32 13.1 94.32 13.78 94.32 C13.78 93.66 13.78 93 13.78 92.32 C14.44 91.99 15.1 91.66 15.78 91.32 C16.44 88.29 16.44 88.29 16.78 85.32 C16.12 84.99 15.46 84.66 14.78 84.32 C15.11 83.66 15.44 83 15.78 82.32 C13.8 82.32 11.82 82.32 9.78 82.32 C9.49 81.7 9.21 81.08 8.91 80.44 C7.85 78.18 7.85 78.18 5.78 76.32 C6.11 75.66 6.44 75 6.78 74.32 C3.31 74.78 0.11 75.21 -3.22 76.32 C-3.22 75.66 -3.22 75 -3.22 74.32 C-5.86 73.99 -8.5 73.66 -11.22 73.32 C-11.55 72 -11.88 70.68 -12.22 69.32 C-13.29 69.54 -14.36 69.77 -15.47 70 C-19.22 70.32 -19.22 70.32 -21.65 69.07 C-23.22 67.32 -23.22 67.32 -23.22 64.32 C-24.54 64.32 -25.86 64.32 -27.22 64.32 C-27.55 62.67 -27.88 61.02 -28.22 59.32 C-29.7 58.82 -29.7 58.82 -31.22 58.32 C-31.55 57.33 -31.88 56.34 -32.22 55.32 C-33.21 54.66 -34.2 54 -35.22 53.32 C-35.22 52.66 -35.22 52 -35.22 51.32 C-37.53 52.31 -39.84 53.3 -42.22 54.32 C-42.88 52.67 -43.54 51.02 -44.22 49.32 C-47.85 48.99 -51.48 48.66 -55.22 48.32 C-55.22 47 -55.22 45.68 -55.22 44.32 C-55.88 44.32 -56.54 44.32 -57.22 44.32 C-57.22 43.66 -57.22 43 -57.22 42.32 C-57.88 42.32 -58.54 42.32 -59.22 42.32 C-59.55 40.67 -59.88 39.02 -60.22 37.32 C-63.68 37.81 -63.68 37.81 -67.22 38.32 C-67.22 37.66 -67.22 37 -67.22 36.32 C-67.88 36.32 -68.54 36.32 -69.22 36.32 C-69.55 35.33 -69.88 34.34 -70.22 33.32 C-72.2 33.98 -74.18 34.64 -76.22 35.32 C-75.56 35.98 -74.9 36.64 -74.22 37.32 C-76.98 40.08 -79.42 39.9 -83.22 40.32 C-83.55 41.64 -83.88 42.96 -84.22 44.32 C-85.21 44.32 -86.2 44.32 -87.22 44.32 C-87.55 45.31 -87.88 46.3 -88.22 47.32 C-88.88 47.32 -89.54 47.32 -90.22 47.32 C-91.81 49.57 -91.81 49.57 -93.34 52.32 C-93.88 53.25 -94.42 54.17 -94.97 55.13 C-95.38 55.85 -95.79 56.57 -96.22 57.32 C-97.22 54.32 -97.22 54.32 -96.4 52.27 C-95.75 51.11 -95.75 51.11 -95.08 49.93 C-94.37 48.65 -94.37 48.65 -93.64 47.34 C-92.87 46 -92.87 46 -92.09 44.63 C-91.6 43.76 -91.12 42.88 -90.62 41.98 C-89.17 39.41 -87.7 36.86 -86.22 34.32 C-85.52 33.12 -85.52 33.12 -84.8 31.89 C-84.37 31.16 -83.93 30.43 -83.47 29.67 C-83.09 29.02 -82.7 28.37 -82.3 27.7 C-81.76 27.02 -81.76 27.02 -81.22 26.32 C-80.56 26.32 -79.9 26.32 -79.22 26.32 C-79.13 25.74 -79.04 25.16 -78.95 24.57 C-76.72 17.74 -67.78 11.59 -61.65 8.32 C-42.15 -0.88 -21.12 -0.06 0 0 Z " fill="#AE252A" transform="translate(401.21696853637695,13.682548522949219)"/>
<path d="M0 0 C1.32 0 2.64 0 4 0 C4 0.66 4 1.32 4 2 C4.66 2 5.32 2 6 2 C6 2.99 6 3.98 6 5 C8.97 4.5 8.97 4.5 12 4 C12 4.66 12 5.32 12 6 C13.32 6 14.64 6 16 6 C16 10.62 16 15.24 16 20 C17.32 20 18.64 20 20 20 C20 21.32 20 22.64 20 24 C21.32 24 22.64 24 24 24 C24 25.98 24 27.96 24 30 C24.66 30 25.32 30 26 30 C26.99 31.98 26.99 31.98 28 34 C28.66 34 29.32 34 30 34 C30 34.66 30 35.32 30 36 C29.34 36 28.68 36 28 36 C28 36.66 28 37.32 28 38 C28.66 38 29.32 38 30 38 C30 38.66 30 39.32 30 40 C30.72 39.67 31.44 39.34 32.19 39 C35.02 37.99 37.03 37.83 40 38 C40 36.35 40 34.7 40 33 C40.66 32.67 41.32 32.34 42 32 C42 32.66 42 33.32 42 34 C43.32 34 44.64 34 46 34 C46 36.64 46 39.28 46 42 C46.66 42 47.32 42 48 42 C48 43.32 48 44.64 48 46 C48.66 46 49.32 46 50 46 C50.2 51.74 50.27 56.61 48 62 C47.34 62 46.68 62 46 62 C46 62.99 46 63.98 46 65 C45.34 65 44.68 65 44 65 C44.33 65.99 44.66 66.98 45 68 C42 69 42 69 39 68 C39 68.66 39 69.32 39 70 C39.66 70.33 40.32 70.66 41 71 C41.62 74.06 41.62 74.06 42 77 C41.29 77.19 40.58 77.39 39.85 77.59 C38.47 77.98 38.47 77.98 37.06 78.38 C36.15 78.63 35.23 78.89 34.29 79.15 C31.83 79.77 31.83 79.77 31 82 C31.66 82.66 32.32 83.32 33 84 C31.28 84.7 29.55 85.39 27.81 86.06 C26.85 86.45 25.89 86.83 24.89 87.22 C22 88 22 88 19.69 87.48 C15.57 86.75 12.14 88.14 8.19 89.31 C1 91.32 -5.95 92.69 -13.39 93.47 C-17.04 93.86 -20.64 94.39 -24.26 94.97 C-36.79 96.95 -49.08 98.48 -61.77 98.82 C-65.25 98.93 -68.58 99.32 -72 100 C-71.62 95.03 -69.1 92.62 -65.62 89.38 C-65.13 88.9 -64.63 88.42 -64.12 87.93 C-62.76 86.61 -61.38 85.31 -60 84 C-59 83 -57.99 82.01 -57 81 C-56.51 80.55 -56.01 80.1 -55.5 79.64 C-52.91 76.82 -51.27 73.4 -49.4 70.08 C-48.94 69.39 -48.48 68.71 -48 68 C-47.34 68 -46.68 68 -46 68 C-45.9 67.22 -45.79 66.43 -45.69 65.62 C-45 63 -45 63 -42 61 C-41.28 59.27 -40.57 57.54 -39.88 55.8 C-38.5 52.99 -36.25 51.14 -34 49 C-33.44 48.07 -32.89 47.14 -32.31 46.19 C-31.88 45.47 -31.45 44.74 -31 44 C-30.34 44 -29.68 44 -29 44 C-28.91 43.42 -28.83 42.84 -28.74 42.24 C-27.67 36.32 -26.08 33.38 -22 29 C-21.46 28.07 -20.93 27.14 -20.38 26.19 C-19 24 -19 24 -16 23 C-15.67 21.02 -15.34 19.04 -15 17 C-14.34 17 -13.68 17 -13 17 C-12.34 15.35 -11.68 13.7 -11 12 C-9.68 12.33 -8.36 12.66 -7 13 C-7 14.65 -7 16.3 -7 18 C-6.4 17.03 -5.8 16.06 -5.19 15.06 C-3 12 -3 12 0 11 C1.03 5.45 1.03 5.45 0 0 Z " fill="#DF3735" transform="translate(126,404)"/>
<path d="M0 0 C1 3 1 3 0.06 5.37 C-0.43 6.29 -0.92 7.2 -1.42 8.15 C-1.95 9.15 -2.48 10.16 -3.03 11.2 C-3.6 12.24 -4.17 13.29 -4.75 14.38 C-5.3 15.42 -5.85 16.46 -6.42 17.53 C-8.85 22.09 -11.33 26.58 -14 31 C-14.93 32.62 -15.85 34.24 -16.77 35.86 C-18.29 38.5 -19.83 41.13 -21.38 43.75 C-24.21 48.59 -26.93 53.48 -29.6 58.42 C-31.29 61.53 -33.01 64.62 -34.73 67.7 C-35.62 69.31 -36.5 70.93 -37.36 72.55 C-40.2 77.84 -43.15 83.05 -46.25 88.19 C-46.92 89.29 -47.58 90.4 -48.27 91.54 C-49.12 92.76 -49.12 92.76 -50 94 C-50.66 94 -51.32 94 -52 94 C-52.5 90.04 -52.5 90.04 -53 86 C-56.57 84.81 -58.31 85.37 -62 86 C-64.7 86.09 -67.37 86.14 -70.06 86.12 C-70.76 86.13 -71.45 86.13 -72.17 86.14 C-75.92 86.13 -79.33 85.74 -83 85 C-83.99 85.5 -83.99 85.5 -85 86 C-86.68 85.01 -88.34 84.01 -90 83 C-94.84 80.81 -94.84 80.81 -100 80 C-100 79.34 -100 78.68 -100 78 C-101.65 77.67 -103.3 77.34 -105 77 C-105 76.34 -105 75.68 -105 75 C-105.99 74.67 -106.98 74.34 -108 74 C-108 73.01 -108 72.02 -108 71 C-108.66 71 -109.32 71 -110 71 C-110.33 70.34 -110.66 69.68 -111 69 C-111.99 68.67 -112.98 68.34 -114 68 C-114.5 67.01 -114.5 67.01 -115 66 C-116.49 65.5 -116.49 65.5 -118 65 C-119.03 63.35 -120.03 61.68 -121 60 C-121.66 59.67 -122.32 59.34 -123 59 C-124.35 56.07 -125.3 53.15 -126 50 C-126.99 50.5 -126.99 50.5 -128 51 C-131.15 45.52 -132.49 41.32 -132.82 35 C-132.78 33 -132.78 33 -134 32 C-134.07 30.48 -134.08 28.96 -134.06 27.44 C-134.05 26.61 -134.04 25.78 -134.04 24.93 C-134.02 24.3 -134.01 23.66 -134 23 C-134.99 23 -135.98 23 -137 23 C-137 21.02 -137 19.04 -137 17 C-137.99 17 -138.98 17 -140 17 C-140.33 16.34 -140.66 15.68 -141 15 C-141.99 15.33 -142.98 15.66 -144 16 C-143.59 11.17 -141.54 9.17 -138 6 C-136.87 6.56 -135.73 7.11 -134.56 7.69 C-123.98 12.39 -112.36 14.92 -101.22 17.99 C-95.9 19.46 -90.6 20.99 -85.3 22.54 C-81.22 23.74 -77.13 24.92 -73.04 26.11 C-70.06 26.98 -67.08 27.88 -64.11 28.78 C-45.95 34.33 -45.95 34.33 -27.69 31.06 C-15.18 23.66 -7.36 12.19 0 0 Z " fill="#64111F" transform="translate(340,246)"/>
<path d="M0 0 C0.33 0.66 0.66 1.32 1 2 C1.66 2 2.32 2 3 2 C3.33 1.34 3.66 0.68 4 0 C4.33 0.99 4.66 1.98 5 3 C5.99 3 6.98 3 8 3 C9 6 9 6 8 9 C8.99 9 9.98 9 11 9 C11.06 9.59 11.12 10.18 11.18 10.79 C12.13 19.76 13.68 27.95 18 36 C18.66 35.67 19.32 35.34 20 35 C20.51 37.57 21.01 40.08 21.31 42.69 C21.54 43.45 21.77 44.21 22 45 C23.32 45.7 24.65 46.37 26 47 C26.75 49.12 26.75 49.12 27 51 C28.32 51.33 29.64 51.66 31 52 C31 52.66 31 53.32 31 54 C32.32 54.33 33.64 54.66 35 55 C35 55.66 35 56.32 35 57 C35.66 57 36.32 57 37 57 C37.33 57.99 37.66 58.98 38 60 C38.66 60.33 39.32 60.66 40 61 C40 61.66 40 62.32 40 63 C41.65 63.33 43.3 63.66 45 64 C45 64.66 45 65.32 45 66 C45.99 65.67 46.98 65.34 48 65 C50.92 66.21 50.92 66.21 54.19 67.94 C55.27 68.5 56.36 69.07 57.48 69.65 C58.31 70.1 59.14 70.54 60 71 C60.33 70.67 60.66 70.34 61 70 C63.5 69.88 63.5 69.88 66 70 C66.33 70.33 66.66 70.66 67 71 C68.44 71.1 69.89 71.13 71.33 71.13 C72.21 71.13 73.09 71.14 74 71.14 C74.93 71.13 75.86 71.13 76.81 71.12 C77.73 71.13 78.64 71.13 79.59 71.14 C80.47 71.14 81.36 71.13 82.27 71.13 C83.08 71.13 83.89 71.13 84.73 71.13 C87.01 71.08 87.01 71.08 89.17 70.37 C89.77 70.25 90.38 70.12 91 70 C93 72 93 72 93.2 73.95 C93.13 75.96 93.07 77.98 93 80 C93.66 80.33 94.32 80.66 95 81 C94.7 81.52 94.4 82.04 94.09 82.57 C88.6 91.98 83.16 101.4 78 111 C70.76 124.23 63.37 137.44 55 150 C54.34 150 53.68 150 53 150 C54.08 147.03 55.31 144.48 56.94 141.75 C58.94 138.35 60.1 134.91 61.27 131.16 C62.24 128.29 63.57 125.66 65 123 C63.02 122.67 61.04 122.34 59 122 C58.67 121.01 58.34 120.02 58 119 C55.5 117.3 55.5 117.3 53 116 C52.67 116.66 52.34 117.32 52 118 C48.28 118.2 47.23 118.15 44 116 C43.67 116.66 43.34 117.32 43 118 C43 117.34 43 116.68 43 116 C41.02 116.99 41.02 116.99 39 118 C38.67 117.01 38.34 116.02 38 115 C34.5 113.28 34.5 113.28 31 112 C31 111.34 31 110.68 31 110 C30.34 110 29.68 110 29 110 C29 109.34 29 108.68 29 108 C28.34 108 27.68 108 27 108 C27 107.34 27 106.68 27 106 C26.34 106 25.68 106 25 106 C23.99 104.34 22.99 102.67 22 101 C21.01 100.34 20.02 99.68 19 99 C18.81 96.38 18.81 96.38 19 94 C18.24 94.08 17.47 94.17 16.69 94.25 C14 94 14 94 12.19 92.31 C10.82 89.66 10.75 87.94 11 85 C10.01 84.5 10.01 84.5 9 84 C9 82.68 9 81.36 9 80 C8.24 80.08 7.47 80.17 6.69 80.25 C4 80 4 80 2.19 78.12 C1 76 1 76 1 74 C0.24 73.71 -0.53 73.42 -1.31 73.12 C-4 72 -4 72 -7 70 C-6.67 68.68 -6.34 67.36 -6 66 C-7.49 65.5 -7.49 65.5 -9 65 C-9 64.01 -9 63.02 -9 62 C-9.66 62 -10.32 62 -11 62 C-11.33 62.66 -11.66 63.32 -12 64 C-12.06 63.4 -12.12 62.79 -12.18 62.17 C-12.27 61.37 -12.35 60.57 -12.44 59.75 C-12.52 58.96 -12.6 58.17 -12.68 57.36 C-13.1 54.12 -13.1 54.12 -14 51 C-14.99 50.67 -15.98 50.34 -17 50 C-17 49.34 -17 48.68 -17 48 C-18.65 47.67 -20.3 47.34 -22 47 C-23.32 48.98 -24.64 50.96 -26 53 C-27.18 49.51 -27.05 49.11 -25.34 45.5 C-24.55 44.14 -23.75 42.78 -22.94 41.44 C-22.1 40 -21.25 38.56 -20.41 37.11 C-20 36.41 -19.58 35.71 -19.16 34.98 C-17.65 32.4 -16.23 29.77 -14.81 27.12 C-12.96 23.71 -11.03 20.37 -9 17.06 C-5.65 11.55 -2.81 5.8 0 0 Z " fill="#8F1C25" transform="translate(195,260)"/>
<path d="M0 0 C2 1 2 1 2.91 3.42 C3.22 4.47 3.52 5.53 3.84 6.62 C4.35 8.37 4.35 8.37 4.87 10.15 C5.4 11.99 5.4 11.99 5.94 13.88 C6.28 15.07 6.63 16.26 6.99 17.48 C15.27 46 15.27 46 15 54.71 C15 59.81 15.57 64.91 16 70 C14.35 70.33 12.7 70.66 11 71 C10.5 72.49 10.5 72.49 10 74 C8.51 73.5 8.51 73.5 7 73 C5.51 73.5 5.51 73.5 4 74 C4 73.01 4 72.02 4 71 C3.34 71 2.68 71 2 71 C2 71.66 2 72.32 2 73 C0.68 73 -0.64 73 -2 73 C-2 73.66 -2 74.32 -2 75 C-2.66 74.67 -3.32 74.34 -4 74 C-4.66 74 -5.32 74 -6 74 C-7.34 73.69 -8.67 73.35 -10 73 C-10 73.66 -10 74.32 -10 75 C-13 75 -16 75 -19 75 C-19.5 76.49 -19.5 76.49 -20 78 C-26.62 82.1 -34.43 81.72 -42 82 C-42 82.99 -42 83.98 -42 85 C-43.58 85.05 -45.17 85.09 -46.75 85.12 C-47.63 85.15 -48.51 85.17 -49.42 85.2 C-52 85 -52 85 -54.02 83.98 C-57.79 82.11 -62 83.21 -66 84 C-69.49 85.4 -69.49 85.4 -72 87 C-72 87.99 -72 88.98 -72 90 C-72.66 90 -73.32 90 -74 90 C-74 89.34 -74 88.68 -74 88 C-74.66 88 -75.32 88 -76 88 C-76 87.34 -76 86.68 -76 86 C-77.32 85.67 -78.64 85.34 -80 85 C-80 84.34 -80 83.68 -80 83 C-80.66 83 -81.32 83 -82 83 C-82.64 82.01 -83.28 81.02 -83.94 80 C-84.62 79.01 -85.3 78.02 -86 77 C-86.99 77 -87.98 77 -89 77 C-89.33 75.68 -89.66 74.36 -90 73 C-90.66 73 -91.32 73 -92 73 C-93.08 71.57 -93.08 71.57 -94.24 69.56 C-94.88 68.47 -94.88 68.47 -95.54 67.35 C-95.98 66.57 -96.42 65.8 -96.88 65 C-97.31 64.26 -97.74 63.51 -98.19 62.75 C-109.59 43.07 -109.59 43.07 -108.57 37.77 C-108.29 36.89 -108.29 36.89 -108 36 C-107.67 36.99 -107.34 37.98 -107 39 C-105.68 39 -104.36 39 -103 39 C-102.67 39.99 -102.34 40.98 -102 42 C-99.57 43.19 -97.72 44 -95 44 C-95.02 44.78 -95.04 45.57 -95.06 46.38 C-95.19 48.98 -95.19 48.98 -94 51 C-91.9 50.86 -89.79 50.71 -87.69 50.56 C-86.52 50.48 -85.34 50.4 -84.14 50.32 C-80.97 50.11 -80.97 50.11 -78 49 C-76 48.96 -74 48.96 -72 49 C-72 47.68 -72 46.36 -72 45 C-71.32 45.21 -70.64 45.41 -69.94 45.62 C-66.2 46.1 -63.57 45.1 -60 44 C-58.68 44 -57.36 44 -56 44 C-56 43.34 -56 42.68 -56 42 C-51.35 40.45 -46.06 40.18 -41.5 42 C-41 42.33 -40.51 42.66 -40 43 C-40 42.34 -40 41.68 -40 41 C-37.69 41.33 -35.38 41.66 -33 42 C-32.77 41.22 -32.55 40.43 -32.31 39.62 C-31 37 -31 37 -28.96 35.84 C-25.01 34.72 -21.39 34.86 -17.31 35 C-14.52 35.09 -11.8 35.09 -9 35 C-8.01 34.01 -8.01 34.01 -7 33 C-6.01 33 -5.02 33 -4 33 C-4 32.34 -4 31.68 -4 31 C-3.34 31 -2.68 31 -2 31 C-1.5 29.51 -1.5 29.51 -1 28 C0.98 28.5 0.98 28.5 3 29 C2.5 27.51 2.5 27.51 2 26 C1.34 25.67 0.68 25.34 0 25 C0 24.01 0 23.02 0 22 C0.99 21.5 0.99 21.5 2 21 C1.78 19.73 1.78 19.73 1.56 18.44 C0.54 12.21 -0.25 6.31 0 0 Z " fill="#B3262A" transform="translate(212,123)"/>
<path d="M0 0 C5.51 0.58 10.67 1.58 16 3.12 C16.76 3.34 17.53 3.56 18.31 3.78 C23.79 5.34 29.25 6.95 34.72 8.55 C39.81 10.04 44.9 11.52 50 13 C50.99 13.29 51.97 13.57 52.99 13.87 C71.75 20.12 71.75 20.12 91 20 C90.5 22.48 90.5 22.48 90 25 C88.35 25 86.7 25 85 25 C84.5 27.48 84.5 27.48 84 30 C83.34 30 82.68 30 82 30 C82 30.99 82 31.98 82 33 C81.34 33 80.68 33 80 33 C79.67 34.32 79.34 35.64 79 37 C78.34 37 77.68 37 77 37 C76.67 37.99 76.34 38.98 76 40 C73.6 41.16 71.3 42.14 68.81 43.06 C68.15 43.32 67.49 43.57 66.81 43.84 C64.88 44.58 62.94 45.29 61 46 C60.01 46.38 59.03 46.77 58.01 47.16 C54.32 48.19 50.81 48.33 47 48.31 C46.31 48.33 45.63 48.34 44.92 48.36 C40.17 48.37 37.07 47.39 33 45 C32.34 44.65 31.67 44.3 30.99 43.94 C27.91 42.22 25.42 40.54 23 38 C22.32 37.67 21.64 37.34 20.94 37 C19 36 19 36 17 33 C17 31.68 17 30.36 17 29 C16.22 28.94 15.43 28.88 14.62 28.81 C13.76 28.54 12.89 28.28 12 28 C10.88 25.5 10.88 25.5 10 23 C9.01 22.67 8.02 22.34 7 22 C5.9 20.22 5.9 20.22 4.94 18.06 C3.78 15.49 3.02 14.02 1 12 C1 10 1 8 1 6 C0.36 4.65 -0.3 3.31 -1 2 C-0.67 1.34 -0.34 0.68 0 0 Z " fill="#3C0518" transform="translate(220,260)"/>
<path d="M0 0 C2.82 0.02 5.64 0.02 8.46 0.03 C49.44 0.09 49.44 0.09 52.62 3.26 C51.17 3.26 51.17 3.26 49.69 3.25 C40.46 3.21 31.24 3.18 22.02 3.16 C17.29 3.15 12.55 3.14 7.81 3.11 C-20.85 2.83 -20.85 2.83 -49.38 5.26 C-36.37 -3.41 -15.02 -0.12 0 0 Z " fill="#71070A" transform="translate(403.38079833984375,13.7357177734375)"/>
<path d="M0 0 C4.59 -0.05 9.18 -0.09 13.77 -0.11 C15.33 -0.12 16.89 -0.13 18.45 -0.15 C20.7 -0.18 22.95 -0.19 25.2 -0.2 C25.89 -0.21 26.58 -0.22 27.29 -0.23 C31.57 -0.23 35.02 0.43 39 2 C38.34 2.66 37.68 3.32 37 4 C34.19 3.96 31.5 3.8 28.71 3.54 C27.89 3.47 27.07 3.4 26.23 3.33 C23.61 3.1 20.99 2.86 18.38 2.62 C16.6 2.47 14.83 2.32 13.05 2.16 C8.7 1.79 4.35 1.4 0 1 C0 0.67 0 0.34 0 0 Z " fill="#6C0E15" transform="translate(458,17)"/>
<path d="M0 0 C-11.03 5.03 -21.77 8.62 -34 8 C-30.93 5.96 -28.89 5.35 -25.34 4.53 C-23.69 4.14 -23.69 4.14 -22 3.74 C-20.84 3.48 -19.69 3.21 -18.5 2.94 C-16.22 2.41 -13.94 1.87 -11.66 1.34 C-10.14 0.99 -10.14 0.99 -8.59 0.63 C-2.54 -0.85 -2.54 -0.85 0 0 Z " fill="#BA2223" transform="translate(146,491)"/>
<path d="M0 0 C1 3 1 3 0.2 5.08 C-0.23 5.87 -0.65 6.65 -1.09 7.45 C-1.54 8.3 -2 9.14 -2.47 10.02 C-2.95 10.9 -3.44 11.78 -3.94 12.69 C-4.66 14.03 -4.66 14.03 -5.4 15.39 C-6.59 17.6 -7.79 19.8 -9 22 C-9.33 22 -9.66 22 -10 22 C-10.89 15.01 -8.07 11.48 -4 6 C-3.2 4.82 -2.41 3.63 -1.62 2.44 C-0.82 1.23 -0.82 1.23 0 0 Z " fill="#831D1E" transform="translate(340,246)"/>
<path d="M0 0 C-3.84 3.84 -9.5 3.95 -14.71 4.12 C-18.14 4.12 -21.57 4.09 -25 4 C-21.35 1.8 -17.81 1.4 -13.62 0.88 C-11.7 0.62 -11.7 0.62 -9.73 0.37 C-6.45 0.04 -3.29 -0.07 0 0 Z " fill="#B81B1C" transform="translate(111,499)"/>
<path d="M0 0 C2 1 2 1 2.85 3.04 C4.4 8.22 5.35 12.59 5 18 C4.34 17.34 3.68 16.68 3 16 C3 14.68 3 13.36 3 12 C2.34 12 1.68 12 1 12 C-0.33 8.02 -0.07 4.15 0 0 Z " fill="#AE1C1E" transform="translate(212,123)"/>
<path d="M0 0 C3 2 3 2 3.73 4.14 C4.63 9.18 5.22 13.88 5 19 C2.93 15.9 2.25 13.65 1.38 10.06 C1.11 9.02 0.85 7.98 0.59 6.91 C0 4 0 4 0 0 Z " fill="#BC2626" transform="translate(206,100)"/>
<path d="M0 0 C0.66 0 1.32 0 2 0 C4.29 5.9 5.35 10.67 5 17 C4.34 16.67 3.68 16.34 3 16 C2.15 13.42 2.15 13.42 1.38 10.19 C0.98 8.6 0.98 8.6 0.59 6.98 C0 4 0 4 0 0 Z " fill="#A51B22" transform="translate(217,142)"/>
<path d="M0 0 C0.33 0.66 0.66 1.32 1 2 C0.22 4.16 0.22 4.16 -0.94 6.62 C-1.32 7.44 -1.7 8.26 -2.09 9.1 C-2.54 10.04 -2.54 10.04 -3 11 C-3.66 11 -4.32 11 -5 11 C-5.66 12.65 -6.32 14.3 -7 16 C-8 13 -8 13 -6.75 10.19 C-6.17 9.14 -5.59 8.08 -5 7 C-4.48 5.91 -3.97 4.81 -3.44 3.69 C-2 1 -2 1 0 0 Z " fill="#B52323" transform="translate(125,390)"/>
<path d="M0 0 C3 3.75 3 3.75 3 6 C4.32 5.67 5.64 5.34 7 5 C6.34 7.31 5.68 9.62 5 12 C4.34 12 3.68 12 3 12 C-0.43 4.71 -0.43 4.71 0 0 Z " fill="#B82625" transform="translate(98,146)"/>
<path d="M0 0 C0.33 0.66 0.66 1.32 1 2 C-0.81 5.62 -3.05 8.26 -6 11 C-6.99 10.67 -7.98 10.34 -9 10 C-8.38 9.75 -7.76 9.5 -7.12 9.25 C-4.58 7.75 -4.17 6.66 -3 4 C-2.02 2.65 -1.03 1.31 0 0 Z " fill="#CF5451" transform="translate(71,476)"/>
<path d="M0 0 C4.27 2.75 8.14 5.69 12 9 C11.01 9.5 11.01 9.5 10 10 C8.33 8.91 6.66 7.8 5 6.69 C3.61 5.77 3.61 5.77 2.19 4.82 C1.47 4.22 0.74 3.62 0 3 C0 2.01 0 1.02 0 0 Z " fill="#72090B" transform="translate(143,219)"/>
<path d="M0 0 C0.33 0.99 0.66 1.98 1 3 C-0.75 5.44 -0.75 5.44 -3 8 C-3.54 8.76 -4.07 9.53 -4.62 10.31 C-5.31 11.15 -5.31 11.15 -6 12 C-6.66 12 -7.32 12 -8 12 C-6.59 8.96 -4.91 6.41 -2.88 3.75 C-2.07 2.69 -2.07 2.69 -1.24 1.61 C-0.83 1.08 -0.42 0.55 0 0 Z " fill="#861115" transform="translate(453,51)"/>
<path d="M0 0 C1.42 0.45 2.83 0.91 4.25 1.38 C5.43 1.76 5.43 1.76 6.64 2.15 C8.87 2.95 10.91 3.9 13 5 C9.29 6.24 8.32 5.57 4.81 4.06 C3.91 3.68 3.01 3.3 2.08 2.91 C1.39 2.61 0.71 2.31 0 2 C0 1.34 0 0.68 0 0 Z " fill="#68000B" transform="translate(180,243)"/>
<path d="M0 0 C0.99 0.49 0.99 0.49 2 1 C3.09 5.93 2.91 10.05 2 15 C1.67 15 1.34 15 1 15 C0.15 9.92 -0.09 5.15 0 0 Z " fill="#C62D2A" transform="translate(192,41)"/>
<path d="M0 0 C1 3 1 3 0 5.48 C-0.47 6.37 -0.95 7.27 -1.44 8.19 C-1.91 9.09 -2.38 9.99 -2.87 10.92 C-3.24 11.61 -3.62 12.29 -4 13 C-4.33 13 -4.66 13 -5 13 C-4.55 7.37 -3.32 4.39 0 0 Z " fill="#B82626" transform="translate(340,246)"/>
<path d="M0 0 C0.99 0 1.98 0 3 0 C3.33 1.32 3.66 2.64 4 4 C0.25 7 0.25 7 -2 7 C-2 5.35 -2 3.7 -2 2 C-1.34 2 -0.68 2 0 2 C0 1.34 0 0.68 0 0 Z " fill="#7C1217" transform="translate(465,34)"/>
<path d="M0 0 C1 3 1 3 -0.44 6.19 C-1.21 7.58 -1.21 7.58 -2 9 C-2.66 9 -3.32 9 -4 9 C-3.67 6.36 -3.34 3.72 -3 1 C-2.01 0.67 -1.02 0.34 0 0 Z " fill="#6A0D18" transform="translate(287,341)"/>
<path d="M0 0 C0.99 0.33 1.98 0.66 3 1 C0.03 3.64 -2.94 6.28 -6 9 C-6.33 8.01 -6.66 7.02 -7 6 C-5.91 4.97 -4.8 3.95 -3.69 2.94 C-3.07 2.37 -2.46 1.8 -1.82 1.21 C-0.92 0.61 -0.92 0.61 0 0 Z " fill="#8E0D0E" transform="translate(334,26)"/>
<path d="M0 0 C1 3 1 3 0.22 4.82 C-0.85 6.55 -1.93 8.27 -3 10 C-3.66 10 -4.32 10 -5 10 C-4.5 5.6 -2.91 3.29 0 0 Z " fill="#54030B" transform="translate(201,252)"/>
<path d="M0 0 C0.33 0.66 0.66 1.32 1 2 C0 4.16 0 4.16 -1.44 6.62 C-1.91 7.44 -2.38 8.26 -2.87 9.1 C-3.24 9.73 -3.62 10.35 -4 11 C-4.33 11 -4.66 11 -5 11 C-5.39 8.34 -5.41 6.61 -3.89 4.33 C-2.64 2.85 -1.32 1.42 0 0 Z " fill="#BE2825" transform="translate(287,100)"/>
<path d="M0 0 C1 3 1 3 0.07 5.04 C-0.61 6.1 -0.61 6.1 -1.31 7.19 C-1.76 7.9 -2.21 8.62 -2.68 9.36 C-3.11 9.9 -3.55 10.44 -4 11 C-4.66 11 -5.32 11 -6 11 C-4.55 6.89 -2.49 3.57 0 0 Z " fill="#921416" transform="translate(246,411)"/>
<path d="M0 0 C0.99 0.5 0.99 0.5 2 1 C2 1.99 2 2.98 2 4 C2.99 3.67 3.98 3.34 5 3 C5.33 4.65 5.66 6.3 6 8 C4.68 8 3.36 8 2 8 C0.24 4.91 0 3.77 0 0 Z " fill="#A51C1B" transform="translate(107,168)"/>
<path d="M0 0 C-0.33 1.65 -0.66 3.3 -1 5 C-2.67 5 -4.33 5 -6 5 C-5.69 3.06 -5.69 3.06 -5 1 C-2 0 -2 0 0 0 Z " fill="#98383D" transform="translate(270,374)"/>
<path d="M0 0 C0.75 1.56 0.75 1.56 1 4 C-0.13 6.5 -1.52 8.67 -3 11 C-3.66 11 -4.32 11 -5 11 C-3.55 7.21 -1.85 3.61 0 0 Z " fill="#BD1E21" transform="translate(396,145)"/>
<path d="M0 0 C-1.25 3.75 -2.57 4.24 -6 6 C-6.66 6 -7.32 6 -8 6 C-6.73 2.19 -4.19 0 0 0 Z " fill="#B52724" transform="translate(190,470)"/>
<path d="M0 0 C0 0.66 0 1.32 0 2 C-1.43 3.32 -1.43 3.32 -3.31 4.69 C-3.93 5.15 -4.54 5.6 -5.18 6.07 C-5.78 6.38 -6.38 6.69 -7 7 C-7.99 6.67 -8.98 6.34 -10 6 C-8.71 4.99 -7.42 4 -6.12 3 C-5.41 2.44 -4.69 1.89 -3.95 1.31 C-2 0 -2 0 0 0 Z " fill="#AA191B" transform="translate(205,460)"/>
<path d="M0 0 C1.6 3.2 0.03 5.72 -1 9 C-2.32 8.34 -3.64 7.68 -5 7 C-4.34 6.01 -3.68 5.02 -3 4 C-2.34 4 -1.68 4 -1 4 C-0.67 2.68 -0.34 1.36 0 0 Z " fill="#D55250" transform="translate(91,448)"/>
<path d="M0 0 C1 2 1 2 0.81 3.94 C-0.23 6.58 -1.65 7.49 -4 9 C-3.38 3.46 -3.38 3.46 -1.44 1.12 C-0.96 0.75 -0.49 0.38 0 0 Z " fill="#680719" transform="translate(195,263)"/>
<path d="M0 0 C0.99 0.33 1.98 0.66 3 1 C1.35 3.64 -0.3 6.28 -2 9 C-3 6 -3 6 -1.56 2.81 C-1.05 1.88 -0.53 0.96 0 0 Z " fill="#C21D1B" transform="translate(256,154)"/>
<path d="M0 0 C1.94 0.69 1.94 0.69 4 2 C4.75 4.62 4.75 4.62 5 7 C3.68 7 2.36 7 1 7 C0.67 4.69 0.34 2.38 0 0 Z " fill="#BB1E1F" transform="translate(95,138)"/>
<path d="M0 0 C1 3 1 3 0.06 5.19 C-0.46 6.08 -0.46 6.08 -1 7 C-1.99 7 -2.98 7 -4 7 C-3.69 4.62 -3.69 4.62 -3 2 C-2.01 1.34 -1.02 0.68 0 0 Z " fill="#B22326" transform="translate(411,119)"/>
<path d="M0 0 C0.33 0 0.66 0 1 0 C0.25 6.62 0.25 6.62 -2 10 C-2.66 10 -3.32 10 -4 10 C-2.89 6.51 -1.74 3.23 0 0 Z " fill="#9E1415" transform="translate(428,87)"/>
<path d="M0 0 C0.33 0.66 0.66 1.32 1 2 C0 3.95 0 3.95 -1.44 6.12 C-1.91 6.85 -2.38 7.57 -2.87 8.32 C-3.24 8.87 -3.62 9.43 -4 10 C-5 7 -5 7 -3.69 3.88 C-2 1 -2 1 0 0 Z " fill="#A70F0F" transform="translate(309,61)"/>
<path d="M0 0 C0 3 0 3 -1.31 4.39 C-2.88 5.59 -4.44 6.8 -6 8 C-5.65 4.74 -4.98 3.98 -2.44 1.75 C-1.63 1.17 -0.83 0.6 0 0 Z " fill="#C12B28" transform="translate(64,486)"/>
<path d="M0 0 C0.66 0 1.32 0 2 0 C0.91 3.78 0.09 6.47 -3 9 C-2.5 5.27 -2.13 3.19 0 0 Z " fill="#7D1113" transform="translate(177,293)"/>
<path d="M0 0 C0.69 1.62 0.69 1.62 1 4 C-0.44 7.25 -0.44 7.25 -2 10 C-2.66 9.67 -3.32 9.34 -4 9 C-2.8 5.92 -1.52 2.94 0 0 Z " fill="#410007" transform="translate(318,285)"/>
<path d="M0 0 C0.69 1.69 0.69 1.69 1 4 C-0.31 6.75 -0.31 6.75 -2 9 C-2.66 9 -3.32 9 -4 9 C-2.94 5.6 -1.99 2.99 0 0 Z " fill="#C32A29" transform="translate(366,199)"/>
<path d="M0 0 C0.66 0 1.32 0 2 0 C3.48 2.96 3.06 5.74 3 9 C0.94 7.31 0.94 7.31 -1 5 C-0.75 2.25 -0.75 2.25 0 0 Z " fill="#931719" transform="translate(222,160)"/>
<path d="M0 0 C0.99 0.33 1.98 0.66 3 1 C0.53 4.46 0.53 4.46 -2 8 C-2.33 7.34 -2.66 6.68 -3 6 C-2.07 3.97 -1.07 1.96 0 0 Z " fill="#BE2B26" transform="translate(74,472)"/>
<path d="M0 0 C0.98 3.05 0.98 4.95 0 8 C-1.32 7.67 -2.64 7.34 -4 7 C-2.68 4.69 -1.36 2.38 0 0 Z " fill="#C74644" transform="translate(294,85)"/>
<path d="M0 0 C0.33 0.66 0.66 1.32 1 2 C0.22 3.73 0.22 3.73 -0.94 5.62 C-1.62 6.74 -2.3 7.85 -3 9 C-3.75 7.31 -3.75 7.31 -4 5 C-2.06 2.25 -2.06 2.25 0 0 Z " fill="#A91313" transform="translate(136,370)"/>
<path d="M0 0 C3.78 1.09 6.47 1.91 9 5 C4.69 4.52 2.83 3.25 0 0 Z " fill="#610007" transform="translate(170,238)"/>
<path d="M0 0 C1 3 1 3 -0.44 6.19 C-1.21 7.58 -1.21 7.58 -2 9 C-2.66 9 -3.32 9 -4 9 C-2.94 5.6 -1.99 2.99 0 0 Z " fill="#C42323" transform="translate(374,185)"/>
<path d="M0 0 C0.66 0 1.32 0 2 0 C0.91 3.78 0.09 6.47 -3 9 C-1.12 2.25 -1.12 2.25 0 0 Z " fill="#B91819" transform="translate(242,179)"/>
</svg>
